<svg width="18" height="18" viewBox="0 0 18 18" fill="none" xmlns="http://www.w3.org/2000/svg">
<path d="M7.03303 6.93129C6.78898 6.50215 6.50292 6.11205 6.14658 5.7676C5.23287 4.8844 3.75016 4.21152 1 4.21152C0.585786 4.21152 0.25 3.87574 0.25 3.46152C0.25 3.04731 0.585786 2.71152 1 2.71152C3.99984 2.71152 5.90937 3.4521 7.18909 4.68909C7.39224 4.88546 7.57673 5.09204 7.74529 5.30631C7.45358 5.85839 7.22426 6.41322 7.03303 6.93129Z" fill="#0E1318"/>
<path d="M10.3173 11.1385C10.1049 11.6617 9.84836 12.2098 9.52372 12.7483C9.70909 13.0186 9.91608 13.278 10.1498 13.5216C11.349 14.7716 13.1477 15.5192 16 15.5192C16.4142 15.5192 16.75 15.1834 16.75 14.7692C16.75 14.355 16.4142 14.0192 16 14.0192C13.4213 14.0192 12.067 13.3533 11.2322 12.4832C10.856 12.091 10.5653 11.64 10.3173 11.1385Z" fill="#0E1318"/>
<path fill-rule="evenodd" clip-rule="evenodd" d="M13.0386 17.608C13.2674 17.9532 13.7328 18.0476 14.0781 17.8188L17.0797 15.8292C17.7946 15.3553 17.8308 14.3187 17.1507 13.7961L14.2952 11.6019C13.9667 11.3496 13.4959 11.4112 13.2435 11.7397C12.9911 12.0682 13.0528 12.539 13.3812 12.7914L15.9593 14.7723L13.2493 16.5685C12.9041 16.7973 12.8097 17.2627 13.0386 17.608Z" fill="#0E1318"/>
<path fill-rule="evenodd" clip-rule="evenodd" d="M7.18909 13.3109C5.90937 14.5479 3.99984 15.2884 1 15.2884C0.585786 15.2884 0.25 14.9527 0.25 14.5384C0.25 14.1242 0.585786 13.7884 1 13.7884C3.75016 13.7884 5.23287 13.1156 6.14658 12.2324C7.09328 11.3173 7.54393 10.0799 8.02866 8.64462C8.04796 8.58746 8.06733 8.52992 8.08682 8.47205C8.53519 7.14038 9.04306 5.63203 10.1498 4.47838C11.349 3.22833 13.1477 2.48076 16 2.48076C16.4142 2.48076 16.75 2.81655 16.75 3.23076C16.75 3.64497 16.4142 3.98076 16 3.98076C13.4213 3.98076 12.067 4.64665 11.2322 5.51679C10.3617 6.42425 9.94909 7.64603 9.46415 9.08207L9.44979 9.12459C8.97978 10.5163 8.43581 12.1058 7.18909 13.3109Z" fill="#0E1318"/>
<path fill-rule="evenodd" clip-rule="evenodd" d="M13.0386 0.491968C13.2674 0.146711 13.7328 0.0523426 14.0781 0.28119L17.0797 2.27078C17.7946 2.74464 17.8308 3.78129 17.1507 4.30387L14.2952 6.498C13.9667 6.75037 13.4959 6.6887 13.2435 6.36025C12.9911 6.0318 13.0528 5.56094 13.3812 5.30857L15.9593 3.32769L13.2493 1.53147C12.9041 1.30263 12.8097 0.837224 13.0386 0.491968Z" fill="#0E1318"/>
</svg>
